<svg xmlns="http://www.w3.org/2000/svg" fill="transparent" viewBox="0 0 24 24"><path fill="currentColor" fill-rule="evenodd" d="M19.875 6.375a1.125 1.125 0 1 0 0 2.25 1.125 1.125 0 0 0 0-2.25ZM17.25 7.5a2.625 2.625 0 1 1 5.25 0 2.625 2.625 0 0 1-5.25 0Zm-6-5.25A2.25 2.25 0 0 0 9 4.5v9.281h-.75l.462.591a4.125 4.125 0 1 0 5.077 0 .75.75 0 0 1-.289-.59V4.5a2.25 2.25 0 0 0-2.25-2.25ZM7.5 13.431V4.5a3.75 3.75 0 1 1 7.5 0v8.931a5.626 5.626 0 1 1-7.5 0Z" clip-rule="evenodd"/><path fill="currentColor" fill-rule="evenodd" d="M11.25 16.5a1.125 1.125 0 1 0 0 2.25 1.125 1.125 0 0 0 0-2.25Zm-2.625 1.125a2.625 2.625 0 1 1 5.25 0 2.625 2.625 0 0 1-5.25 0Z" clip-rule="evenodd"/><path fill="currentColor" fill-rule="evenodd" d="M11.348 7.566c.418 0 .757.338.757.756v7.566a.757.757 0 0 1-1.513 0V8.322c0-.418.338-.756.756-.756Z" clip-rule="evenodd"/></svg>