<svg xmlns="http://www.w3.org/2000/svg" fill="none" viewBox="0 0 46 46"><g clip-path="url(#a)"><g clip-path="url(#b)"><g filter="url(#c)"><path fill="url(#d)" d="M40.268 13.605c.117-.659.177-1.336.177-2.028 0-6.47-5.294-11.715-11.825-11.715a11.831 11.831 0 0 0-10.847 7.044 8.404 8.404 0 0 0-5.482-2.024c-4.664 0-8.446 3.789-8.446 8.462 0 .26.012.517.035.771C1.636 15.205.09 17.49.09 20.131c0 3.697 3.025 6.695 6.757 6.695h31.908c3.731 0 6.757-2.998 6.757-6.695 0-3.182-2.241-5.845-5.245-6.526Z"/></g><g filter="url(#e)"><path fill="url(#f)" d="M26.82 26.84h-7.237l-3.146 8.46H22.1L19.478 45.86l9.544-13.856h-4.195l1.993-5.166Z"/></g><g filter="url(#g)"><rect width="32" height="6" x="6.862" y="21.862" fill="#FFED8D" rx="3"/></g></g></g><defs><filter id="c" width="61.421" height="42.964" x="-7.909" y="-8.138" color-interpolation-filters="sRGB" filterUnits="userSpaceOnUse"><feFlood flood-opacity="0" result="BackgroundImageFix"/><feGaussianBlur in="BackgroundImageFix" stdDeviation="4"/><feComposite in2="SourceAlpha" operator="in" result="effect1_backgroundBlur_1_197"/><feBlend in="SourceGraphic" in2="effect1_backgroundBlur_1_197" result="shape"/><feColorMatrix in="SourceAlpha" result="hardAlpha" values="0 0 0 0 0 0 0 0 0 0 0 0 0 0 0 0 0 0 127 0"/><feOffset dy="2.996"/><feGaussianBlur stdDeviation="1.362"/><feComposite in2="hardAlpha" k2="-1" k3="1" operator="arithmetic"/><feColorMatrix values="0 0 0 0 1 0 0 0 0 1 0 0 0 0 1 0 0 0 1 0"/><feBlend in2="shape" result="effect2_innerShadow_1_197"/></filter><filter id="e" width="12.874" height="19.022" x="16.148" y="26.839" color-interpolation-filters="sRGB" filterUnits="userSpaceOnUse"><feFlood flood-opacity="0" result="BackgroundImageFix"/><feBlend in="SourceGraphic" in2="BackgroundImageFix" result="shape"/><feColorMatrix in="SourceAlpha" result="hardAlpha" values="0 0 0 0 0 0 0 0 0 0 0 0 0 0 0 0 0 0 127 0"/><feOffset dx="-.289"/><feGaussianBlur stdDeviation=".651"/><feComposite in2="hardAlpha" k2="-1" k3="1" operator="arithmetic"/><feColorMatrix values="0 0 0 0 1 0 0 0 0 1 0 0 0 0 1 0 0 0 0.5 0"/><feBlend in2="shape" result="effect1_innerShadow_1_197"/></filter><filter id="g" width="54.277" height="28.277" x="-4.277" y="10.723" color-interpolation-filters="sRGB" filterUnits="userSpaceOnUse"><feFlood flood-opacity="0" result="BackgroundImageFix"/><feBlend in="SourceGraphic" in2="BackgroundImageFix" result="shape"/><feGaussianBlur result="effect1_foregroundBlur_1_197" stdDeviation="5.569"/></filter><linearGradient id="d" x1=".091" x2="50.912" y1="26.86" y2="-.138" gradientUnits="userSpaceOnUse"><stop stop-color="#fff"/><stop offset="1" stop-color="#fff"/></linearGradient><linearGradient id="f" x1="21.174" x2="33.451" y1="44.029" y2="27.082" gradientUnits="userSpaceOnUse"><stop stop-color="#F90"/><stop offset="1" stop-color="#FFEE94"/></linearGradient><clipPath id="a"><path fill="#fff" d="M0 0h46v46H0z"/></clipPath><clipPath id="b"><path fill="#fff" d="M-.139-.138h46v46h-46z"/></clipPath></defs></svg>