<svg xmlns="http://www.w3.org/2000/svg" fill="transparent" viewBox="0 0 24 24"><path fill="currentColor" fill-rule="evenodd" d="M12.43.886 12 1.5l-.43-.614a.75.75 0 0 1 .86 0ZM12 2.438A23.639 23.639 0 0 0 8.816 5.46C6.984 7.568 5.25 10.395 5.25 13.5a6.75 6.75 0 0 0 13.5 0c0-3.105-1.734-5.932-3.566-8.04A23.632 23.632 0 0 0 12 2.439ZM11.57.885 12 1.5l.43-.614h.001l.002.002.005.003.02.014.068.05a21.96 21.96 0 0 1 1.131.9 25.02 25.02 0 0 1 2.659 2.622c1.918 2.205 3.934 5.378 3.934 9.023a8.25 8.25 0 1 1-16.5 0c0-3.645 2.016-6.818 3.934-9.023a25.142 25.142 0 0 1 3.538-3.334 13.993 13.993 0 0 1 .32-.238l.02-.014.005-.003.002-.002Z" clip-rule="evenodd"/><path fill="currentColor" fill-rule="evenodd" d="M16.562 13.52a.75.75 0 0 1 .611.867 5.24 5.24 0 0 1-4.288 4.277.75.75 0 0 1-.251-1.478 3.741 3.741 0 0 0 3.061-3.054.75.75 0 0 1 .867-.612Z" clip-rule="evenodd"/></svg>