<svg xmlns="http://www.w3.org/2000/svg" fill="none" viewBox="0 0 46 46"><g clip-path="url(#a)"><g clip-path="url(#b)"><g filter="url(#c)"><rect width="24.38" height="3.45" x="10.533" y="28.29" fill="#00BCFF" rx="1.725"/></g><g filter="url(#d)"><path fill="url(#e)" d="M40.027 16.673a11.58 11.58 0 0 0 .175-2.01c0-6.41-5.245-11.606-11.715-11.606-4.81 0-8.942 2.872-10.746 6.98A8.326 8.326 0 0 0 12.31 8.03c-4.622 0-8.368 3.753-8.368 8.383 0 .257.012.512.034.764-2.223 1.08-3.753 3.342-3.753 5.96 0 3.663 2.997 6.632 6.694 6.632H38.53c3.697 0 6.694-2.969 6.694-6.632 0-3.152-2.22-5.791-5.196-6.465Z"/></g><g filter="url(#f)"><path fill="#00BCFF" d="M15.161 33.126c-1.843.521-4.973 1.982-2.743 3.655 2.229 1.673 2.758-1.74 2.743-3.655Z"/></g><g filter="url(#g)"><path fill="#00BCFF" d="M24.167 33.126c-1.843.521-4.973 1.982-2.743 3.655 2.229 1.673 2.758-1.74 2.743-3.655Z"/></g><g filter="url(#h)"><path fill="#00BCFF" d="M18.877 37.724c-1.843.52-4.972 1.982-2.743 3.655 2.229 1.673 2.758-1.74 2.743-3.655Z"/></g><g filter="url(#i)"><path fill="#00BCFF" d="M33.137 33.126c-1.843.521-4.973 1.982-2.743 3.655 2.229 1.673 2.758-1.74 2.743-3.655Z"/></g><g filter="url(#j)"><path fill="#00BCFF" d="M29.457 37.724c-1.843.52-4.973 1.982-2.743 3.655 2.229 1.673 2.758-1.74 2.743-3.655Z"/></g></g></g><defs><filter id="c" width="59.953" height="39.023" x="-7.254" y="10.503" color-interpolation-filters="sRGB" filterUnits="userSpaceOnUse"><feFlood flood-opacity="0" result="BackgroundImageFix"/><feBlend in="SourceGraphic" in2="BackgroundImageFix" result="shape"/><feGaussianBlur result="effect1_foregroundBlur_1_211" stdDeviation="8.893"/></filter><filter id="d" width="61" height="42.916" x="-7.777" y="-4.943" color-interpolation-filters="sRGB" filterUnits="userSpaceOnUse"><feFlood flood-opacity="0" result="BackgroundImageFix"/><feGaussianBlur in="BackgroundImageFix" stdDeviation="4"/><feComposite in2="SourceAlpha" operator="in" result="effect1_backgroundBlur_1_211"/><feBlend in="SourceGraphic" in2="effect1_backgroundBlur_1_211" result="shape"/><feColorMatrix in="SourceAlpha" result="hardAlpha" values="0 0 0 0 0 0 0 0 0 0 0 0 0 0 0 0 0 0 127 0"/><feOffset dy="9.022"/><feGaussianBlur stdDeviation="4.101"/><feComposite in2="hardAlpha" k2="-1" k3="1" operator="arithmetic"/><feColorMatrix values="0 0 0 0 1 0 0 0 0 1 0 0 0 0 1 0 0 0 1 0"/><feBlend in2="shape" result="effect2_innerShadow_1_211"/></filter><filter id="f" width="3.515" height="5.022" x="11.646" y="33.126" color-interpolation-filters="sRGB" filterUnits="userSpaceOnUse"><feFlood flood-opacity="0" result="BackgroundImageFix"/><feBlend in="SourceGraphic" in2="BackgroundImageFix" result="shape"/><feColorMatrix in="SourceAlpha" result="hardAlpha" values="0 0 0 0 0 0 0 0 0 0 0 0 0 0 0 0 0 0 127 0"/><feOffset dy="2.757"/><feGaussianBlur stdDeviation=".46"/><feComposite in2="hardAlpha" k2="-1" k3="1" operator="arithmetic"/><feColorMatrix values="0 0 0 0 1 0 0 0 0 1 0 0 0 0 1 0 0 0 0.21 0"/><feBlend in2="shape" result="effect1_innerShadow_1_211"/></filter><filter id="g" width="3.515" height="5.022" x="20.652" y="33.126" color-interpolation-filters="sRGB" filterUnits="userSpaceOnUse"><feFlood flood-opacity="0" result="BackgroundImageFix"/><feBlend in="SourceGraphic" in2="BackgroundImageFix" result="shape"/><feColorMatrix in="SourceAlpha" result="hardAlpha" values="0 0 0 0 0 0 0 0 0 0 0 0 0 0 0 0 0 0 127 0"/><feOffset dy="2.757"/><feGaussianBlur stdDeviation=".46"/><feComposite in2="hardAlpha" k2="-1" k3="1" operator="arithmetic"/><feColorMatrix values="0 0 0 0 1 0 0 0 0 1 0 0 0 0 1 0 0 0 0.21 0"/><feBlend in2="shape" result="effect1_innerShadow_1_211"/></filter><filter id="h" width="3.515" height="5.022" x="15.362" y="37.724" color-interpolation-filters="sRGB" filterUnits="userSpaceOnUse"><feFlood flood-opacity="0" result="BackgroundImageFix"/><feBlend in="SourceGraphic" in2="BackgroundImageFix" result="shape"/><feColorMatrix in="SourceAlpha" result="hardAlpha" values="0 0 0 0 0 0 0 0 0 0 0 0 0 0 0 0 0 0 127 0"/><feOffset dy="2.757"/><feGaussianBlur stdDeviation=".46"/><feComposite in2="hardAlpha" k2="-1" k3="1" operator="arithmetic"/><feColorMatrix values="0 0 0 0 1 0 0 0 0 1 0 0 0 0 1 0 0 0 0.21 0"/><feBlend in2="shape" result="effect1_innerShadow_1_211"/></filter><filter id="i" width="3.515" height="5.022" x="29.622" y="33.126" color-interpolation-filters="sRGB" filterUnits="userSpaceOnUse"><feFlood flood-opacity="0" result="BackgroundImageFix"/><feBlend in="SourceGraphic" in2="BackgroundImageFix" result="shape"/><feColorMatrix in="SourceAlpha" result="hardAlpha" values="0 0 0 0 0 0 0 0 0 0 0 0 0 0 0 0 0 0 127 0"/><feOffset dy="2.757"/><feGaussianBlur stdDeviation=".46"/><feComposite in2="hardAlpha" k2="-1" k3="1" operator="arithmetic"/><feColorMatrix values="0 0 0 0 1 0 0 0 0 1 0 0 0 0 1 0 0 0 0.21 0"/><feBlend in2="shape" result="effect1_innerShadow_1_211"/></filter><filter id="j" width="3.515" height="5.022" x="25.942" y="37.724" color-interpolation-filters="sRGB" filterUnits="userSpaceOnUse"><feFlood flood-opacity="0" result="BackgroundImageFix"/><feBlend in="SourceGraphic" in2="BackgroundImageFix" result="shape"/><feColorMatrix in="SourceAlpha" result="hardAlpha" values="0 0 0 0 0 0 0 0 0 0 0 0 0 0 0 0 0 0 127 0"/><feOffset dy="2.757"/><feGaussianBlur stdDeviation=".46"/><feComposite in2="hardAlpha" k2="-1" k3="1" operator="arithmetic"/><feColorMatrix values="0 0 0 0 1 0 0 0 0 1 0 0 0 0 1 0 0 0 0.21 0"/><feBlend in2="shape" result="effect1_innerShadow_1_211"/></filter><clipPath id="a"><path fill="#fff" d="M0 0h46v46H0z"/></clipPath><clipPath id="b"><path fill="#fff" d="M-.277 0h46v46h-46z"/></clipPath><linearGradient id="e" x1=".223" x2="50.573" y1="29.805" y2="3.057" gradientUnits="userSpaceOnUse"><stop stop-color="#E2FFFF"/><stop offset="1" stop-color="#fff"/></linearGradient></defs></svg>