<svg xmlns="http://www.w3.org/2000/svg" fill="transparent" viewBox="0 0 24 24"><path fill="currentColor" fill-rule="evenodd" d="M14.25 14.25a3 3 0 1 1-2.813 4.038.75.75 0 0 1 1.407-.52 1.5 1.5 0 1 0 1.407-2.018H3.75a.75.75 0 0 1 0-1.5h10.5Zm-2.39-8.871a1.5 1.5 0 0 0-2.016.852.75.75 0 1 1-1.407-.518A3 3 0 1 1 11.25 9.75h-9a.75.75 0 0 1 0-1.5h9a1.502 1.502 0 0 0 1.499-1.595 1.5 1.5 0 0 0-.89-1.276Z" clip-rule="evenodd"/><path fill="currentColor" fill-rule="evenodd" d="M20.11 8.379a1.5 1.5 0 0 0-2.016.852.75.75 0 1 1-1.407-.518A3 3 0 1 1 19.5 12.75H3a.75.75 0 0 1 0-1.5h16.5a1.502 1.502 0 0 0 1.499-1.595 1.5 1.5 0 0 0-.89-1.276Z" clip-rule="evenodd"/></svg>