<svg xmlns="http://www.w3.org/2000/svg" fill="none" viewBox="0 0 46 46"><g clip-path="url(#a)"><g clip-path="url(#b)"><g filter="url(#c)"><rect width="24.38" height="3.45" x="10.671" y="25.392" fill="#00BCFF" rx="1.725"/></g><g filter="url(#d)"><path fill="url(#e)" d="M17.95 12.701c.05-.285.076-.577.076-.876 0-2.797-2.252-5.064-5.03-5.064a5.03 5.03 0 0 0-4.614 3.045 3.542 3.542 0 0 0-2.331-.875c-1.985 0-3.593 1.638-3.593 3.657 0 .113.005.224.015.334a2.895 2.895 0 0 0-1.612 2.6 2.884 2.884 0 0 0 2.874 2.893h13.572a2.884 2.884 0 0 0 2.874-2.893 2.89 2.89 0 0 0-2.23-2.82Z"/></g><g filter="url(#f)"><path fill="url(#g)" d="M40.657 20.487a9.3 9.3 0 0 0 .175-1.8c0-5.74-5.254-10.392-11.736-10.392-4.818 0-8.958 2.571-10.766 6.25-1.464-1.12-3.364-1.796-5.44-1.796-4.63 0-8.383 3.36-8.383 7.506 0 .23.012.459.035.684-2.227.966-3.76 2.993-3.76 5.337 0 3.28 3.002 5.939 6.706 5.939h31.667c3.704 0 6.706-2.66 6.706-5.939 0-2.823-2.223-5.186-5.204-5.79Z"/></g><g filter="url(#h)"><path fill="url(#i)" d="M41.13 32.346c.057-.33.087-.67.087-1.015 0-3.238-2.609-5.863-5.828-5.863a5.829 5.829 0 0 0-5.346 3.526 4.105 4.105 0 0 0-2.702-1.013c-2.299 0-4.163 1.895-4.163 4.234 0 .13.006.259.017.386a3.352 3.352 0 0 0-1.867 3.01c0 1.85 1.491 3.35 3.33 3.35h15.727c1.839 0 3.33-1.5 3.33-3.35a3.347 3.347 0 0 0-2.585-3.265Z"/></g></g></g><defs><filter id="c" width="59.953" height="39.023" x="-7.115" y="7.605" color-interpolation-filters="sRGB" filterUnits="userSpaceOnUse"><feFlood flood-opacity="0" result="BackgroundImageFix"/><feBlend in="SourceGraphic" in2="BackgroundImageFix" result="shape"/><feGaussianBlur result="effect1_foregroundBlur_1_156" stdDeviation="8.893"/></filter><filter id="d" width="19.32" height="15.898" x=".861" y="6.761" color-interpolation-filters="sRGB" filterUnits="userSpaceOnUse"><feFlood flood-opacity="0" result="BackgroundImageFix"/><feBlend in="SourceGraphic" in2="BackgroundImageFix" result="shape"/><feColorMatrix in="SourceAlpha" result="hardAlpha" values="0 0 0 0 0 0 0 0 0 0 0 0 0 0 0 0 0 0 127 0"/><feOffset dy="4.669"/><feGaussianBlur stdDeviation="2.122"/><feComposite in2="hardAlpha" k2="-1" k3="1" operator="arithmetic"/><feColorMatrix values="0 0 0 0 1 0 0 0 0 1 0 0 0 0 1 0 0 0 1 0"/><feBlend in2="shape" result="effect1_innerShadow_1_156"/></filter><filter id="f" width="61.08" height="39.92" x="-7.219" y=".295" color-interpolation-filters="sRGB" filterUnits="userSpaceOnUse"><feFlood flood-opacity="0" result="BackgroundImageFix"/><feGaussianBlur in="BackgroundImageFix" stdDeviation="4"/><feComposite in2="SourceAlpha" operator="in" result="effect1_backgroundBlur_1_156"/><feBlend in="SourceGraphic" in2="effect1_backgroundBlur_1_156" result="shape"/><feColorMatrix in="SourceAlpha" result="hardAlpha" values="0 0 0 0 0 0 0 0 0 0 0 0 0 0 0 0 0 0 127 0"/><feOffset dy="4.669"/><feGaussianBlur stdDeviation="2.122"/><feComposite in2="hardAlpha" k2="-1" k3="1" operator="arithmetic"/><feColorMatrix values="0 0 0 0 1 0 0 0 0 1 0 0 0 0 1 0 0 0 1 0"/><feBlend in2="shape" result="effect2_innerShadow_1_156"/></filter><filter id="h" width="38.387" height="29.493" x="13.328" y="17.468" color-interpolation-filters="sRGB" filterUnits="userSpaceOnUse"><feFlood flood-opacity="0" result="BackgroundImageFix"/><feGaussianBlur in="BackgroundImageFix" stdDeviation="4"/><feComposite in2="SourceAlpha" operator="in" result="effect1_backgroundBlur_1_156"/><feBlend in="SourceGraphic" in2="effect1_backgroundBlur_1_156" result="shape"/><feColorMatrix in="SourceAlpha" result="hardAlpha" values="0 0 0 0 0 0 0 0 0 0 0 0 0 0 0 0 0 0 127 0"/><feOffset dy="4.669"/><feGaussianBlur stdDeviation="2.122"/><feComposite in2="hardAlpha" k2="-1" k3="1" operator="arithmetic"/><feColorMatrix values="0 0 0 0 1 0 0 0 0 1 0 0 0 0 1 0 0 0 1 0"/><feBlend in2="shape" result="effect2_innerShadow_1_156"/></filter><linearGradient id="e" x1=".861" x2="22.628" y1="18.43" y2="7.049" gradientUnits="userSpaceOnUse"><stop stop-color="#E2FFFF"/><stop offset="1" stop-color="#fff"/></linearGradient><linearGradient id="g" x1=".782" x2="48.573" y1="32.246" y2="3.84" gradientUnits="userSpaceOnUse"><stop stop-color="#E2FFFF"/><stop offset="1" stop-color="#fff"/></linearGradient><linearGradient id="i" x1="21.328" x2="46.543" y1="38.979" y2="25.786" gradientUnits="userSpaceOnUse"><stop stop-color="#E2FFFF"/><stop offset="1" stop-color="#fff"/></linearGradient><clipPath id="a"><path fill="#fff" d="M0 0h46v46H0z"/></clipPath><clipPath id="b"><path fill="#fff" d="M-.139-.139h46v46h-46z"/></clipPath></defs></svg>