<svg xmlns="http://www.w3.org/2000/svg" fill="none" viewBox="0 0 46 46"><g clip-path="url(#a)"><g clip-path="url(#b)"><g filter="url(#c)"><rect width="24.38" height="3.45" x="11.091" y="28.29" fill="#00BCFF" rx="1.725"/></g><g filter="url(#d)"><path fill="url(#e)" d="M40.666 16.678c.115-.667.175-1.353.175-2.053 0-6.553-5.245-11.865-11.715-11.865-4.81 0-8.943 2.936-10.747 7.135a8.22 8.22 0 0 0-5.431-2.05c-4.621 0-8.368 3.836-8.368 8.569 0 .263.012.524.035.781A6.788 6.788 0 0 0 .86 23.288c0 3.744 2.997 6.78 6.694 6.78h31.612c3.697 0 6.694-3.036 6.694-6.78 0-3.223-2.22-5.92-5.195-6.61Z"/></g><g filter="url(#f)"><path fill="#00BCFF" d="M23.138 36.621c-1.713 2.247-4.11 6.74 0 6.74 4.111 0 1.713-4.493 0-6.74Z"/></g><g filter="url(#g)"><path fill="#00BCFF" d="M14.13 33.32c-1.712 2.246-4.11 6.74 0 6.74 4.112 0 1.714-4.494 0-6.74Z"/></g><g filter="url(#h)"><path fill="#00BCFF" d="M32.08 33.32c-1.713 2.246-4.111 6.74 0 6.74 4.11 0 1.713-4.494 0-6.74Z"/></g></g></g><defs><filter id="c" width="59.953" height="39.023" x="-6.696" y="10.503" color-interpolation-filters="sRGB" filterUnits="userSpaceOnUse"><feFlood flood-opacity="0" result="BackgroundImageFix"/><feBlend in="SourceGraphic" in2="BackgroundImageFix" result="shape"/><feGaussianBlur result="effect1_foregroundBlur_1_166" stdDeviation="8.893"/></filter><filter id="d" width="61" height="43.692" x="-7.139" y="-5.24" color-interpolation-filters="sRGB" filterUnits="userSpaceOnUse"><feFlood flood-opacity="0" result="BackgroundImageFix"/><feGaussianBlur in="BackgroundImageFix" stdDeviation="4"/><feComposite in2="SourceAlpha" operator="in" result="effect1_backgroundBlur_1_166"/><feBlend in="SourceGraphic" in2="effect1_backgroundBlur_1_166" result="shape"/><feColorMatrix in="SourceAlpha" result="hardAlpha" values="0 0 0 0 0 0 0 0 0 0 0 0 0 0 0 0 0 0 127 0"/><feOffset dy="9.223"/><feGaussianBlur stdDeviation="4.192"/><feComposite in2="hardAlpha" k2="-1" k3="1" operator="arithmetic"/><feColorMatrix values="0 0 0 0 1 0 0 0 0 1 0 0 0 0 1 0 0 0 1 0"/><feBlend in2="shape" result="effect2_innerShadow_1_166"/></filter><filter id="f" width="4.54" height="8.096" x="20.868" y="36.621" color-interpolation-filters="sRGB" filterUnits="userSpaceOnUse"><feFlood flood-opacity="0" result="BackgroundImageFix"/><feBlend in="SourceGraphic" in2="BackgroundImageFix" result="shape"/><feColorMatrix in="SourceAlpha" result="hardAlpha" values="0 0 0 0 0 0 0 0 0 0 0 0 0 0 0 0 0 0 127 0"/><feOffset dy="4.066"/><feGaussianBlur stdDeviation=".678"/><feComposite in2="hardAlpha" k2="-1" k3="1" operator="arithmetic"/><feColorMatrix values="0 0 0 0 1 0 0 0 0 1 0 0 0 0 1 0 0 0 0.21 0"/><feBlend in2="shape" result="effect1_innerShadow_1_166"/></filter><filter id="g" width="4.54" height="8.096" x="11.861" y="33.319" color-interpolation-filters="sRGB" filterUnits="userSpaceOnUse"><feFlood flood-opacity="0" result="BackgroundImageFix"/><feBlend in="SourceGraphic" in2="BackgroundImageFix" result="shape"/><feColorMatrix in="SourceAlpha" result="hardAlpha" values="0 0 0 0 0 0 0 0 0 0 0 0 0 0 0 0 0 0 127 0"/><feOffset dy="4.066"/><feGaussianBlur stdDeviation=".678"/><feComposite in2="hardAlpha" k2="-1" k3="1" operator="arithmetic"/><feColorMatrix values="0 0 0 0 1 0 0 0 0 1 0 0 0 0 1 0 0 0 0.28 0"/><feBlend in2="shape" result="effect1_innerShadow_1_166"/></filter><filter id="h" width="4.54" height="8.096" x="29.81" y="33.319" color-interpolation-filters="sRGB" filterUnits="userSpaceOnUse"><feFlood flood-opacity="0" result="BackgroundImageFix"/><feBlend in="SourceGraphic" in2="BackgroundImageFix" result="shape"/><feColorMatrix in="SourceAlpha" result="hardAlpha" values="0 0 0 0 0 0 0 0 0 0 0 0 0 0 0 0 0 0 127 0"/><feOffset dy="4.066"/><feGaussianBlur stdDeviation=".678"/><feComposite in2="hardAlpha" k2="-1" k3="1" operator="arithmetic"/><feColorMatrix values="0 0 0 0 1 0 0 0 0 1 0 0 0 0 1 0 0 0 0.21 0"/><feBlend in2="shape" result="effect1_innerShadow_1_166"/></filter><clipPath id="a"><path fill="#fff" d="M0 0h46v46H0z"/></clipPath><clipPath id="b"><path fill="#fff" d="M.28 0h46v46h-46z"/></clipPath><linearGradient id="e" x1=".861" x2="51.692" y1="30.103" y2="3.686" gradientUnits="userSpaceOnUse"><stop stop-color="#E2FFFF"/><stop offset="1" stop-color="#fff"/></linearGradient></defs></svg>