<svg xmlns="http://www.w3.org/2000/svg" fill="transparent" viewBox="0 0 24 24"><path fill="currentColor" fill-rule="evenodd" d="M14.878 18.123a.75.75 0 0 1 .214 1.04l-2.465 3.75a.75.75 0 0 1-1.254-.825l2.466-3.75a.75.75 0 0 1 1.039-.215Zm-2.25-3.75a.75.75 0 0 1 .214 1.04l-2.962 4.5a.75.75 0 0 1-1.253-.825l2.962-4.5a.75.75 0 0 1 1.039-.214Z" clip-rule="evenodd"/><path fill="currentColor" fill-rule="evenodd" d="M15.722 3.108A5.625 5.625 0 0 0 9 8.625a.75.75 0 1 1-1.5 0c0-.368.028-.734.085-1.095a3.48 3.48 0 0 0-.456-.03h-.004a3.375 3.375 0 1 0 0 6.75h7.5a5.625 5.625 0 0 0 1.097-11.142Zm-7.75 2.965a7.124 7.124 0 1 1 6.653 9.677h-7.5A4.875 4.875 0 0 1 7.123 6" clip-rule="evenodd"/></svg>