<svg xmlns="http://www.w3.org/2000/svg" fill="transparent" viewBox="0 0 24 24"><path fill="currentColor" fill-rule="evenodd" d="M7.69 3.104a.75.75 0 0 1 .98.405l.722 1.734a.75.75 0 0 1-1.384.576l-.722-1.734a.75.75 0 0 1 .404-.98ZM1.604 9.19a.75.75 0 0 1 .981-.404l1.734.722a.75.75 0 0 1-.576 1.384l-1.734-.721a.75.75 0 0 1-.405-.981Zm20.791 0a.75.75 0 0 1-.404.98l-1.734.722a.75.75 0 1 1-.577-1.384l1.735-.722a.75.75 0 0 1 .98.404ZM16.31 3.104a.75.75 0 0 1 .404.981l-.721 1.734a.75.75 0 0 1-1.385-.576l.721-1.734a.75.75 0 0 1 .981-.405ZM.75 15a.75.75 0 0 1 .75-.75h21a.75.75 0 0 1 0 1.5h-21A.75.75 0 0 1 .75 15Zm3 3.75A.75.75 0 0 1 4.5 18h15a.75.75 0 0 1 0 1.5h-15a.75.75 0 0 1-.75-.75Z" clip-rule="evenodd"/><path fill="currentColor" fill-rule="evenodd" d="M12 8.616a4.875 4.875 0 0 0-4.696 6.183.75.75 0 0 1-1.445.402 6.375 6.375 0 1 1 12.282 0 .75.75 0 1 1-1.445-.402A4.875 4.875 0 0 0 12 8.616Z" clip-rule="evenodd"/></svg>